# xmcd
#
# Track frame offsets:
# 150
# 14355
# 26844
# 39487
# 54107
# 63592
# 77500
# 89907
# 100282
# 114932
# 132105
# 147212
# 166362
# 175909
# 195692
# 204782
# 222100
# 234507
# 245445
# 257007
# 267965
# 283952
# 296050
# 306627
#
# Disc length: 4281 seconds
#
# Revision: 0
# Processed by: cddbd v1.4PL0 Copyright (c) Steve Scherf et al.
# Submitted via: Audion 3.0.2 (http://www.panic.com/audion/)
#
DISCID=6210b718
DTITLE=Anthology - PESELA-QUESELA-IN
DYEAR=1900
DGENRE=
TTITLE0=All I Want Is You
TTITLE1=Invisible Boy
TTITLE2=Strawberry Statement
TTITLE3=Roly-Poly
TTITLE4=Fabulous Girlfriend
TTITLE5=Yeah
TTITLE6=Don't You Get Cruel
TTITLE7=I'm Leaving Home
TTITLE8=The Shining
TTITLE9=Miyoshi-on
TTITLE10=Grasshopper Blues
TTITLE11=Wild Porpoise
TTITLE12=Gleaming Stone
TTITLE13=I am a Rain
TTITLE14=Francis Amour
TTITLE15=Subterrenian Railroad Crossing
TTITLE16=Everybody Hates My Guitar Sounds
TTITLE17=Travellin'
TTITLE18=The Door Into Everywhere
TTITLE19=Oracle
TTITLE20=Star Gazer
TTITLE21=Lady Birds
TTITLE22=Billy
TTITLE23=Fascination
EXTD=
EXTT0=
EXTT1=
EXTT2=
EXTT3=
EXTT4=
EXTT5=
EXTT6=
EXTT7=
EXTT8=
EXTT9=
EXTT10=
EXTT11=
EXTT12=
EXTT13=
EXTT14=
EXTT15=
EXTT16=
EXTT17=
EXTT18=
EXTT19=
EXTT20=
EXTT21=
EXTT22=
EXTT23=
PLAYORDER=
